<?xml version="1.0" encoding="utf-8"?>
<svg viewBox="181.255 168.886 72.129 73.886" width="72.129" height="73.886" xmlns="http://www.w3.org/2000/svg">
  <defs>
    <clipPath id="clippath1" transform="">
      <path d="M 0 2400 L 2400 2400 L 2400 0 L 0 0 Z" style="fill: none; clip-rule: nonzero;"/>
    </clipPath>
    <style type="text/css">
	.st0{fill:#CE9B9B;}
	.st1{fill:#FFBD9C;}
	.st2{fill:#362349;}
	.st3{fill:#563B6B;}
	.st4{fill:#D89682;}
	.st5{fill:#262B40;}
	.st6{fill:#00053F;}
	.st7{opacity:0.8;}
	.st8{fill:#FFFFFF;}
	.st9{fill:#F8BD7A;}
	.st10{fill:#18214D;}
	.st11{fill:#FFF1E9;}
	.st12{fill:#7E2E3B;}
	.st13{opacity:0.35;}
	.st14{fill:#561A25;}
	.st15{fill:#F7F7F7;}
	.st16{opacity:0.24;}
	.st17{fill:#B7652E;}
	.st18{fill:#040055;}
	.st19{fill:#B56835;}
	.st20{fill:#422D51;}
	.st21{fill:#00B493;}
	.st22{fill:#009198;}
	.st23{fill:#FCA054;}
	.st24{fill:#9E6235;}
	.st25{fill:#0C0C0C;}
	.st26{fill:#C8BDD1;}
	.st27{fill:#B56326;}
	.st28{fill:#383838;}
	.st29{fill:#161616;}
	.st30{fill:#EE5050;}
	.st31{fill:#C48362;}
	.st32{fill:#2D2D2D;}
	.st33{fill:#694582;}
	.st34{fill:#191919;}
	.st35{fill:#663A3A;}
	.st36{fill:#3F2222;}
	.st37{fill:#111111;}
	.st38{fill:#432254;}
	.st39{fill:#1C1C1C;}
	.st40{fill:#D35050;}
</style>
  </defs>
  <g style="clip-path: url(#clippath1);" transform="matrix(0.057151, 0, 0, -0.057151, 148.563616, 274.285252)">
    <g transform="translate(885.2935 1045.8699)">
      <path d="M 0 0 C 26.363 -57.783 66.714 -106.434 116.017 -142.717 C 129.836 -118.945 155.587 -102.961 185.074 -102.961 C 229.155 -102.961 264.891 -138.68 264.891 -182.742 C 264.891 -191.125 263.594 -199.204 261.196 -206.794 C 284.586 -211.454 308.663 -213.877 333.144 -213.877 C 353.917 -213.877 373.403 -212.415 391.429 -209.517 C 409.474 -206.616 428.343 -201.932 447.867 -195.488 L 506.277 -372.911 C 479.363 -381.793 450.719 -388.675 420.634 -393.511 C 390.533 -398.349 361.274 -400.791 333.144 -400.791 C 225.146 -400.791 121.941 -369.156 34.393 -312.87 C -52.893 -256.753 -124.43 -175.94 -169.391 -77.395 Z" style="fill: rgb(245, 46, 89); fill-opacity: 1;"/>
    </g>
  </g>
  <g style="clip-path: url(#clippath1);" transform="matrix(0.057151, 0, 0, -0.057151, 148.563616, 274.285252)">
    <g transform="translate(1443.0215 908.6873)">
      <path d="M 0 0 C 44.713 34.691 80.102 78.642 104.269 127.98 C 116.908 153.785 126.48 181.243 132.715 209.793 C 92.64 214.044 61.416 247.937 61.416 289.122 C 61.416 330.253 92.556 364.109 132.555 368.433 C 124.309 405.616 110.352 441.06 91.381 473.56 C 58.99 529.048 12.592 575.818 -44.384 607.992 L 46.883 770.082 C 134.146 720.804 204.469 650.439 252.739 567.747 C 301.298 484.56 328.147 388.749 328.147 289.122 C 328.147 204.319 308.291 121.381 271.469 46.205 C 234.798 -28.659 181.316 -95.182 113.9 -147.486 Z" style="fill: rgb(255, 214, 0); fill-opacity: 1;"/>
    </g>
  </g>
  <g style="clip-path: url(#clippath1);" transform="matrix(0.057151, 0, 0, -0.057151, 148.563616, 274.285252)">
    <g transform="translate(1267.248 1560.6228)">
      <path d="M 0 0 C -7.041 0.946 -15.158 1.728 -24.336 2.343 C -30.911 2.783 -39.072 3.003 -48.811 3.003 C -111.794 3.003 -171.057 -12.913 -222.8 -40.938 C -213.813 -53.846 -208.542 -69.53 -208.542 -86.448 C -208.542 -130.51 -244.276 -166.23 -288.358 -166.23 C -309.34 -166.23 -328.427 -158.133 -342.673 -144.9 C -387.878 -205.766 -414.627 -281.162 -414.627 -362.813 L -601.541 -362.813 C -601.541 -210.19 -539.672 -72.01 -439.643 28.019 C -339.614 128.048 -201.433 189.917 -48.811 189.917 C -38.071 189.917 -25.768 189.453 -11.924 188.526 C -0.684 187.773 11.573 186.505 24.824 184.723 Z" style="fill: rgb(0, 191, 166); fill-opacity: 1;"/>
    </g>
  </g>
  <g style="clip-path: url(#clippath1);" transform="matrix(0.057151, 0, 0, -0.057151, 148.563616, 274.285252)">
    <g transform="translate(833.8003 1449.3713)">
      <path d="M 0 0 C -24.492 -37.446 -43.24 -77.992 -55.848 -120.3 C -68.39 -162.391 -74.86 -206.587 -74.86 -251.562 C -74.86 -306.301 -65.22 -359.918 -46.8 -410.07 C -28.27 -460.526 -0.942 -507.695 34.315 -549.219 L -108.061 -669.691 C -157.661 -611.274 -196.056 -545.05 -222.032 -474.322 C -248.121 -403.29 -261.774 -327.93 -261.774 -251.562 C -261.774 -189.023 -252.572 -126.873 -234.73 -67 C -216.954 -7.346 -190.606 49.688 -156.249 102.219 Z" style="fill: rgb(0, 145, 235); fill-opacity: 1;"/>
    </g>
  </g>
  <g style="clip-path: url(#clippath1);" transform="matrix(0.057151, 0, 0, -0.057151, 148.563616, 274.285252)">
    <g transform="translate(758.9404 1197.8093)">
      <path d="M 0 0 L -93.233 0 C -93.233 111.692 -60.095 215.646 -3.119 302.576 L 74.86 251.562 C 50.368 214.116 31.62 173.57 19.012 131.262 C 6.47 89.171 0 44.975 0 0" style="fill: rgb(0, 125, 120); fill-opacity: 1;"/>
    </g>
  </g>
  <g style="clip-path: url(#clippath1);" transform="matrix(0.057151, 0, 0, -0.057151, 148.563616, 274.285252)">
    <g transform="translate(1218.4375 738.3123)">
      <path d="M 0 0 C 95.553 0 185.828 29.242 260.504 80.623 C 335.428 132.175 395.107 206.044 429.186 295.104 L 603.687 228.661 C 555.875 103.711 471.908 -0.091 366.373 -72.705 C 260.589 -145.49 133.591 -186.914 0 -186.914 Z" style="fill: rgb(0, 191, 166); fill-opacity: 1;"/>
    </g>
  </g>
  <g style="clip-path: url(#clippath1);" transform="matrix(0.057151, 0, 0, -0.057151, 148.563616, 274.285252)">
    <g transform="translate(1362.4951 761.2781)">
      <path d="M 0 0 L 29.075 -88.319 C 2.161 -97.201 -26.482 -104.083 -56.567 -108.919 C -86.669 -113.757 -115.929 -116.199 -144.058 -116.199 L -144.058 -22.966 C -94.104 -22.966 -45.594 -14.97 0 0" style="fill: rgb(135, 25, 150); fill-opacity: 1;"/>
    </g>
  </g>
  <g style="clip-path: url(#clippath1);" transform="matrix(0.057151, 0, 0, -0.057151, 148.563616, 274.285252)">
    <g transform="translate(1734.3359 1000.3992)">
      <path d="M 0 0 C -5.937 -15.441 -12.558 -30.627 -19.846 -45.507 C -56.517 -120.371 -109.998 -186.894 -177.414 -239.198 L -234.057 -165.854 C -169.147 -115.452 -117.488 -47.413 -86.713 33.017 Z" style="fill: rgb(148, 194, 61); fill-opacity: 1;"/>
    </g>
  </g>
  <g style="clip-path: url(#clippath1);" transform="matrix(0.057151, 0, 0, -0.057151, 148.563616, 274.285252)">
    <g transform="translate(797.292 840.2244)">
      <path d="M 0 0 C -32.4 38.205 -59.925 81.205 -81.389 128.251 L 2.972 166.795 C 20.443 128.464 43.199 92.463 70.824 59.928 Z" style="fill: rgb(135, 25, 150); fill-opacity: 1;"/>
    </g>
  </g>
  <g style="clip-path: url(#clippath1);" transform="matrix(0.057151, 0, 0, -0.057151, 148.563616, 274.285252)">
    <g transform="translate(1656.6865 1337.2463)">
      <path d="M 0 0 C -30.266 95.189 -89.82 175.273 -166.944 231.68 C -243.62 287.759 -337.939 320.06 -438.249 320.06 C -467.173 320.06 -494.883 317.634 -521.057 312.841 C -548.063 307.896 -574.935 300.39 -601.336 290.385 L -667.048 464.887 C -630.846 478.605 -593.219 489.041 -554.643 496.105 C -515.233 503.321 -476.272 506.974 -438.249 506.974 C -297.716 506.974 -165.043 461.331 -56.694 382.087 C 51.207 303.17 134.712 190.55 177.422 56.22 Z" style="fill: rgb(245, 46, 89); fill-opacity: 1;"/>
    </g>
  </g>
  <g style="clip-path: url(#clippath1);" transform="matrix(0.057151, 0, 0, -0.057151, 148.563616, 274.285252)">
    <g transform="translate(1022.5229 1714.8064)">
      <path d="M 0 0 C 60.895 23.091 126.929 35.734 195.915 35.734 C 206.654 35.734 218.958 35.27 232.801 34.343 C 244.042 33.59 256.298 32.322 269.549 30.54 L 257.172 -61.559 C 237.077 -58.88 216.625 -57.5 195.915 -57.5 C 166.991 -57.5 139.28 -59.926 113.107 -64.719 C 86.1 -69.664 59.229 -77.17 32.828 -87.175 Z" style="fill: rgb(135, 25, 150); fill-opacity: 1;"/>
    </g>
  </g>
  <g style="clip-path: url(#clippath1);" transform="matrix(0.057151, 0, 0, -0.057151, 148.563616, 274.285252)">
    <g transform="translate(1444.4824 1598.0999)">
      <path d="M 0 0 L 45.422 80.669 C 132.686 31.391 203.008 -38.973 251.278 -121.666 C 271.727 -156.696 288.324 -193.965 300.689 -232.815 L 212.204 -260.854 C 181.938 -165.665 122.384 -85.58 45.26 -29.174 C 30.777 -18.581 15.664 -8.838 0 0" style="fill: rgb(242, 145, 0); fill-opacity: 1;"/>
    </g>
  </g>
</svg>